solid Visualization Toolkit generated SLA File
 facet normal 0.24521289136378463 0.96946925578329335 0
  outer loop
   vertex 1.2000000476837158 0.5 5.4385241637571484e-33
   vertex 1.1939079761505127 0.5015408992767334 -3.4214366654180005e-19
   vertex 1.2000000476837158 0.5 1
  endloop
 endfacet
 facet normal 0.24521289136378463 0.96946925578329335 -0
  outer loop
   vertex 1.2000000476837158 0.5 1
   vertex 1.1939079761505127 0.5015408992767334 -3.4214366654180005e-19
   vertex 1.1939079761505127 0.5015408992767334 1
  endloop
 endfacet
 facet normal 0.2162789726746486 0.97633160656551443 -0
  outer loop
   vertex 1.1939079761505127 0.5015408992767334 1
   vertex 1.1939079761505127 0.5015408992767334 -3.4214366654180005e-19
   vertex 1.1889705657958984 0.50263464450836182 -5.8501516472321501e-19
  endloop
 endfacet
 facet normal 0.2162789726746486 0.97633160656551443 -0
  outer loop
   vertex 1.1939079761505127 0.5015408992767334 1
   vertex 1.1889705657958984 0.50263464450836182 -5.8501516472321501e-19
   vertex 1.1889705657958984 0.50263464450836182 1
  endloop
 endfacet
 facet normal 0.19102194841000059 0.98158576559852739 -0
  outer loop
   vertex 1.1889705657958984 0.50263464450836182 1
   vertex 1.1889705657958984 0.50263464450836182 -5.8501516472321501e-19
   vertex 1.1836029291152954 0.50367921590805054 -8.1695164539940865e-19
  endloop
 endfacet
 facet normal 0.19102194841000059 0.98158576559852739 -0
  outer loop
   vertex 1.1889705657958984 0.50263464450836182 1
   vertex 1.1836029291152954 0.50367921590805054 -8.1695164539940865e-19
   vertex 1.1836029291152954 0.50367921590805054 1
  endloop
 endfacet
 facet normal 0.18014198779059501 0.98364061741819775 -0
  outer loop
   vertex 1.1836029291152954 0.50367921590805054 1
   vertex 1.1836029291152954 0.50367921590805054 -8.1695164539940865e-19
   vertex 1.1770012378692627 0.50488823652267456 -1.0854066508549582e-18
  endloop
 endfacet
 facet normal 0.18014198779059501 0.98364061741819775 -0
  outer loop
   vertex 1.1836029291152954 0.50367921590805054 1
   vertex 1.1770012378692627 0.50488823652267456 -1.0854066508549582e-18
   vertex 1.1770012378692627 0.50488823652267456 1
  endloop
 endfacet
 facet normal 0.16519114350035877 0.98626157083658283 -0
  outer loop
   vertex 1.1770012378692627 0.50488823652267456 1
   vertex 1.1770012378692627 0.50488823652267456 -1.0854066508549582e-18
   vertex 1.1446559429168701 0.51030582189559937 -2.288351737645792e-18
  endloop
 endfacet
 facet normal 0.16519114350035877 0.98626157083658283 -0
  outer loop
   vertex 1.1770012378692627 0.50488823652267456 1
   vertex 1.1446559429168701 0.51030582189559937 -2.288351737645792e-18
   vertex 1.1446559429168701 0.51030582189559937 1
  endloop
 endfacet
 facet normal 0.13163614264647058 0.99129810145543906 -0
  outer loop
   vertex 1.1446559429168701 0.51030582189559937 1
   vertex 1.1446559429168701 0.51030582189559937 -2.288351737645792e-18
   vertex 1.1127582788467407 0.51454156637191772 -3.2288705697793042e-18
  endloop
 endfacet
 facet normal 0.13163614264647058 0.99129810145543906 -0
  outer loop
   vertex 1.1446559429168701 0.51030582189559937 1
   vertex 1.1127582788467407 0.51454156637191772 -3.2288705697793042e-18
   vertex 1.1127582788467407 0.51454156637191772 1
  endloop
 endfacet
 facet normal 0.088240723495468243 0.99609917915687307 -0
  outer loop
   vertex 1.1127582788467407 0.51454156637191772 1
   vertex 1.1127582788467407 0.51454156637191772 -3.2288705697793042e-18
   vertex 1.0809321403503418 0.51736092567443848 -3.8549052591875058e-18
  endloop
 endfacet
 facet normal 0.088240723495468243 0.99609917915687307 -0
  outer loop
   vertex 1.1127582788467407 0.51454156637191772 1
   vertex 1.0809321403503418 0.51736092567443848 -3.8549052591875058e-18
   vertex 1.0809321403503418 0.51736092567443848 1
  endloop
 endfacet
 facet normal 0.035508905547491025 0.99936935995997955 -0
  outer loop
   vertex 1.0809321403503418 0.51736092567443848 1
   vertex 1.0809321403503418 0.51736092567443848 -3.8549052591875058e-18
   vertex 1.0642021894454956 0.51795536279678345 -3.9868930928586109e-18
  endloop
 endfacet
 facet normal 0.035508905547491025 0.99936935995997955 -0
  outer loop
   vertex 1.0809321403503418 0.51736092567443848 1
   vertex 1.0642021894454956 0.51795536279678345 -3.9868930928586109e-18
   vertex 1.0642021894454956 0.51795536279678345 1
  endloop
 endfacet
 facet normal 0.0077912010220627086 0.99996964813269895 -0
  outer loop
   vertex 1.0642021894454956 0.51795536279678345 1
   vertex 1.0642021894454956 0.51795536279678345 -3.9868930928586109e-18
   vertex 1.0575696229934692 0.51800704002380371 -3.99836402000319e-18
  endloop
 endfacet
 facet normal 0.0077912010220627086 0.99996964813269895 -0
  outer loop
   vertex 1.0642021894454956 0.51795536279678345 1
   vertex 1.0575696229934692 0.51800704002380371 -3.99836402000319e-18
   vertex 1.0575696229934692 0.51800704002380371 1
  endloop
 endfacet
 facet normal -0.019107870188645508 0.99981742798215612 0
  outer loop
   vertex 1.0575696229934692 0.51800704002380371 1
   vertex 1.0575696229934692 0.51800704002380371 -3.99836402000319e-18
   vertex 1.0520212650299072 0.51790100336074829 -3.9748270092632998e-18
  endloop
 endfacet
 facet normal -0.019107870188645508 0.99981742798215612 0
  outer loop
   vertex 1.0575696229934692 0.51800704002380371 1
   vertex 1.0520212650299072 0.51790100336074829 -3.9748270092632998e-18
   vertex 1.0520212650299072 0.51790100336074829 1
  endloop
 endfacet
 facet normal -0.086179208343533098 0.99627965152826536 0
  outer loop
   vertex 1.0520212650299072 0.51790100336074829 1
   vertex 1.0520212650299072 0.51790100336074829 -3.9748270092632998e-18
   vertex 1.0294572114944458 0.51594918966293335 -3.5414294496288975e-18
  endloop
 endfacet
 facet normal -0.086179208343533098 0.99627965152826536 0
  outer loop
   vertex 1.0520212650299072 0.51790100336074829 1
   vertex 1.0294572114944458 0.51594918966293335 -3.5414294496288975e-18
   vertex 1.0294572114944458 0.51594918966293335 1
  endloop
 endfacet
 facet normal -0.18150922985729967 0.98338924108239556 0
  outer loop
   vertex 1.0294572114944458 0.51594918966293335 1
   vertex 1.0294572114944458 0.51594918966293335 -3.5414294496288975e-18
   vertex 1.0235295295715332 0.51485508680343628 -3.2984947755281988e-18
  endloop
 endfacet
 facet normal -0.18150922985729967 0.98338924108239556 0
  outer loop
   vertex 1.0294572114944458 0.51594918966293335 1
   vertex 1.0235295295715332 0.51485508680343628 -3.2984947755281988e-18
   vertex 1.0235295295715332 0.51485508680343628 1
  endloop
 endfacet
 facet normal -0.23153316183972952 0.97282701184151821 0
  outer loop
   vertex 1.0235295295715332 0.51485508680343628 1
   vertex 1.0235295295715332 0.51485508680343628 -3.2984947755281988e-18
   vertex 1.0186542272567749 0.51369476318359375 -3.0408542777023792e-18
  endloop
 endfacet
 facet normal -0.23153316183972952 0.97282701184151821 0
  outer loop
   vertex 1.0235295295715332 0.51485508680343628 1
   vertex 1.0186542272567749 0.51369476318359375 -3.0408542777023792e-18
   vertex 1.0186542272567749 0.51369476318359375 1
  endloop
 endfacet
 facet normal -0.31817794670126576 0.94803100910938887 0
  outer loop
   vertex 1.0186542272567749 0.51369476318359375 1
   vertex 1.0186542272567749 0.51369476318359375 -3.0408542777023792e-18
   vertex 1.011050820350647 0.51114290952682495 -2.4742274930925829e-18
  endloop
 endfacet
 facet normal -0.31817794670126576 0.94803100910938887 0
  outer loop
   vertex 1.0186542272567749 0.51369476318359375 1
   vertex 1.011050820350647 0.51114290952682495 -2.4742274930925829e-18
   vertex 1.011050820350647 0.51114290952682495 1
  endloop
 endfacet
 facet normal -0.45521808500125555 0.8903799723083341 0
  outer loop
   vertex 1.011050820350647 0.51114290952682495 1
   vertex 1.011050820350647 0.51114290952682495 -2.4742274930925829e-18
   vertex 1.0069969892501831 0.50907033681869507 -2.0140158399265084e-18
  endloop
 endfacet
 facet normal -0.45521808500125555 0.8903799723083341 0
  outer loop
   vertex 1.011050820350647 0.51114290952682495 1
   vertex 1.0069969892501831 0.50907033681869507 -2.0140158399265084e-18
   vertex 1.0069969892501831 0.50907033681869507 1
  endloop
 endfacet
 facet normal -0.54597507635421472 0.8378014179983283 0
  outer loop
   vertex 1.0069969892501831 0.50907033681869507 1
   vertex 1.0069969892501831 0.50907033681869507 -2.0140158399265084e-18
   vertex 1.0039314031600952 0.5070725679397583 -1.5704302068800201e-18
  endloop
 endfacet
 facet normal -0.54597507635421472 0.8378014179983283 0
  outer loop
   vertex 1.0069969892501831 0.50907033681869507 1
   vertex 1.0039314031600952 0.5070725679397583 -1.5704302068800201e-18
   vertex 1.0039314031600952 0.5070725679397583 1
  endloop
 endfacet
 facet normal -0.7429208573849847 0.66937926444009244 0
  outer loop
   vertex 1.0039314031600952 0.5070725679397583 1
   vertex 1.0039314031600952 0.5070725679397583 -1.5704302068800201e-18
   vertex 1.0015497207641602 0.50442922115325928 -9.8348021500525531e-19
  endloop
 endfacet
 facet normal -0.7429208573849847 0.66937926444009244 0
  outer loop
   vertex 1.0039314031600952 0.5070725679397583 1
   vertex 1.0015497207641602 0.50442922115325928 -9.8348021500525531e-19
   vertex 1.0015497207641602 0.50442922115325928 1
  endloop
 endfacet
 facet normal -0.94389201623664565 0.33025423795118808 0
  outer loop
   vertex 1.0015497207641602 0.50442922115325928 1
   vertex 1.0015497207641602 0.50442922115325928 -9.8348021500525531e-19
   vertex 1 0.5 0
  endloop
 endfacet
 facet normal -0.94389201623664565 0.33025423795118808 0
  outer loop
   vertex 1.0015497207641602 0.50442922115325928 1
   vertex 1 0.5 0
   vertex 1 0.5 1
  endloop
 endfacet
 facet normal -0.94389132353573324 -0.33025621773701969 0
  outer loop
   vertex 1 0.5 1
   vertex 1 0.5 0
   vertex 1.0015497207641602 0.49557080864906311 9.8348021500525531e-19
  endloop
 endfacet
 facet normal -0.94389132353573324 -0.33025621773701969 0
  outer loop
   vertex 1 0.5 1
   vertex 1.0015497207641602 0.49557080864906311 9.8348021500525531e-19
   vertex 1.0015497207641602 0.49557080864906311 1
  endloop
 endfacet
 facet normal -0.74292836332198409 -0.66937093376671042 0
  outer loop
   vertex 1.0015497207641602 0.49557080864906311 1
   vertex 1.0015497207641602 0.49557080864906311 9.8348021500525531e-19
   vertex 1.0039314031600952 0.49292740225791931 1.5704302068800201e-18
  endloop
 endfacet
 facet normal -0.74292836332198409 -0.66937093376671042 0
  outer loop
   vertex 1.0015497207641602 0.49557080864906311 1
   vertex 1.0039314031600952 0.49292740225791931 1.5704302068800201e-18
   vertex 1.0039314031600952 0.49292740225791931 1
  endloop
 endfacet
 facet normal -0.54596364242092121 -0.83780886910707775 0
  outer loop
   vertex 1.0039314031600952 0.49292740225791931 1
   vertex 1.0039314031600952 0.49292740225791931 1.5704302068800201e-18
   vertex 1.0069969892501831 0.49092969298362732 2.0140158399265084e-18
  endloop
 endfacet
 facet normal -0.54596364242092121 -0.83780886910707775 0
  outer loop
   vertex 1.0039314031600952 0.49292740225791931 1
   vertex 1.0069969892501831 0.49092969298362732 2.0140158399265084e-18
   vertex 1.0069969892501831 0.49092969298362732 1
  endloop
 endfacet
 facet normal -0.45522846355215513 -0.89037466606588944 0
  outer loop
   vertex 1.0069969892501831 0.49092969298362732 1
   vertex 1.0069969892501831 0.49092969298362732 2.0140158399265084e-18
   vertex 1.011050820350647 0.48885706067085266 2.4742274930925829e-18
  endloop
 endfacet
 facet normal -0.45522846355215513 -0.89037466606588944 0
  outer loop
   vertex 1.0069969892501831 0.49092969298362732 1
   vertex 1.011050820350647 0.48885706067085266 2.4742274930925829e-18
   vertex 1.011050820350647 0.48885706067085266 1
  endloop
 endfacet
 facet normal -0.31817794670126576 -0.94803100910938887 0
  outer loop
   vertex 1.011050820350647 0.48885706067085266 1
   vertex 1.011050820350647 0.48885706067085266 2.4742274930925829e-18
   vertex 1.0186542272567749 0.48630520701408386 3.0408542777023792e-18
  endloop
 endfacet
 facet normal -0.31817794670126576 -0.94803100910938887 0
  outer loop
   vertex 1.011050820350647 0.48885706067085266 1
   vertex 1.0186542272567749 0.48630520701408386 3.0408542777023792e-18
   vertex 1.0186542272567749 0.48630520701408386 1
  endloop
 endfacet
 facet normal -0.23152753381085753 -0.97282835129711465 0
  outer loop
   vertex 1.0186542272567749 0.48630520701408386 1
   vertex 1.0186542272567749 0.48630520701408386 3.0408542777023792e-18
   vertex 1.0235295295715332 0.48514491319656372 3.2984947755281988e-18
  endloop
 endfacet
 facet normal -0.23152753381085753 -0.97282835129711465 0
  outer loop
   vertex 1.0186542272567749 0.48630520701408386 1
   vertex 1.0235295295715332 0.48514491319656372 3.2984947755281988e-18
   vertex 1.0235295295715332 0.48514491319656372 1
  endloop
 endfacet
 facet normal -0.18150922985729967 -0.98338924108239556 0
  outer loop
   vertex 1.0235295295715332 0.48514491319656372 1
   vertex 1.0235295295715332 0.48514491319656372 3.2984947755281988e-18
   vertex 1.0294572114944458 0.48405081033706665 3.5414294496288975e-18
  endloop
 endfacet
 facet normal -0.18150922985729967 -0.98338924108239556 0
  outer loop
   vertex 1.0235295295715332 0.48514491319656372 1
   vertex 1.0294572114944458 0.48405081033706665 3.5414294496288975e-18
   vertex 1.0294572114944458 0.48405081033706665 1
  endloop
 endfacet
 facet normal -0.086180514444327505 -0.99627953854834894 0
  outer loop
   vertex 1.0294572114944458 0.48405081033706665 1
   vertex 1.0294572114944458 0.48405081033706665 3.5414294496288975e-18
   vertex 1.0520212650299072 0.48209896683692932 3.9748270092632998e-18
  endloop
 endfacet
 facet normal -0.086180514444327505 -0.99627953854834894 0
  outer loop
   vertex 1.0294572114944458 0.48405081033706665 1
   vertex 1.0520212650299072 0.48209896683692932 3.9748270092632998e-18
   vertex 1.0520212650299072 0.48209896683692932 1
  endloop
 endfacet
 facet normal -0.019102501752265359 -0.99981753056585509 0
  outer loop
   vertex 1.0520212650299072 0.48209896683692932 1
   vertex 1.0520212650299072 0.48209896683692932 3.9748270092632998e-18
   vertex 1.0575696229934692 0.48199295997619629 3.99836402000319e-18
  endloop
 endfacet
 facet normal -0.019102501752265359 -0.99981753056585509 0
  outer loop
   vertex 1.0520212650299072 0.48209896683692932 1
   vertex 1.0575696229934692 0.48199295997619629 3.99836402000319e-18
   vertex 1.0575696229934692 0.48199295997619629 1
  endloop
 endfacet
 facet normal 0.0077912010220627086 -0.99996964813269895 0
  outer loop
   vertex 1.0575696229934692 0.48199295997619629 1
   vertex 1.0575696229934692 0.48199295997619629 3.99836402000319e-18
   vertex 1.0642021894454956 0.48204463720321655 3.9868930928586109e-18
  endloop
 endfacet
 facet normal 0.0077912010220627086 -0.99996964813269895 0
  outer loop
   vertex 1.0575696229934692 0.48199295997619629 1
   vertex 1.0642021894454956 0.48204463720321655 3.9868930928586109e-18
   vertex 1.0642021894454956 0.48204463720321655 1
  endloop
 endfacet
 facet normal 0.035507127540053092 -0.99936942313333488 0
  outer loop
   vertex 1.0642021894454956 0.48204463720321655 1
   vertex 1.0642021894454956 0.48204463720321655 3.9868930928586109e-18
   vertex 1.0809321403503418 0.48263904452323914 3.8549052591875058e-18
  endloop
 endfacet
 facet normal 0.035507127540053092 -0.99936942313333488 0
  outer loop
   vertex 1.0642021894454956 0.48204463720321655 1
   vertex 1.0809321403503418 0.48263904452323914 3.8549052591875058e-18
   vertex 1.0809321403503418 0.48263904452323914 1
  endloop
 endfacet
 facet normal 0.088242574484286157 -0.9960990151829211 0
  outer loop
   vertex 1.0809321403503418 0.48263904452323914 1
   vertex 1.0809321403503418 0.48263904452323914 3.8549052591875058e-18
   vertex 1.1127582788467407 0.48545846343040466 3.2288705697793042e-18
  endloop
 endfacet
 facet normal 0.088242574484286157 -0.9960990151829211 0
  outer loop
   vertex 1.0809321403503418 0.48263904452323914 1
   vertex 1.1127582788467407 0.48545846343040466 3.2288705697793042e-18
   vertex 1.1127582788467407 0.48545846343040466 1
  endloop
 endfacet
 facet normal 0.13163523251500123 -0.99129822231290288 0
  outer loop
   vertex 1.1127582788467407 0.48545846343040466 1
   vertex 1.1127582788467407 0.48545846343040466 3.2288705697793042e-18
   vertex 1.1446559429168701 0.48969417810440063 2.288351737645792e-18
  endloop
 endfacet
 facet normal 0.13163523251500123 -0.99129822231290288 0
  outer loop
   vertex 1.1127582788467407 0.48545846343040466 1
   vertex 1.1446559429168701 0.48969417810440063 2.288351737645792e-18
   vertex 1.1446559429168701 0.48969417810440063 1
  endloop
 endfacet
 facet normal 0.16519114350035877 -0.98626157083658283 0
  outer loop
   vertex 1.1446559429168701 0.48969417810440063 1
   vertex 1.1446559429168701 0.48969417810440063 2.288351737645792e-18
   vertex 1.1770012378692627 0.49511176347732544 1.0854066508549582e-18
  endloop
 endfacet
 facet normal 0.16519114350035877 -0.98626157083658283 0
  outer loop
   vertex 1.1446559429168701 0.48969417810440063 1
   vertex 1.1770012378692627 0.49511176347732544 1.0854066508549582e-18
   vertex 1.1770012378692627 0.49511176347732544 1
  endloop
 endfacet
 facet normal 0.18014198779059501 -0.98364061741819775 0
  outer loop
   vertex 1.1770012378692627 0.49511176347732544 1
   vertex 1.1770012378692627 0.49511176347732544 1.0854066508549582e-18
   vertex 1.1836029291152954 0.49632078409194946 8.1695164539940865e-19
  endloop
 endfacet
 facet normal 0.18014198779059501 -0.98364061741819775 0
  outer loop
   vertex 1.1770012378692627 0.49511176347732544 1
   vertex 1.1836029291152954 0.49632078409194946 8.1695164539940865e-19
   vertex 1.1836029291152954 0.49632078409194946 1
  endloop
 endfacet
 facet normal 0.1910166972841105 -0.98158678748171346 0
  outer loop
   vertex 1.1836029291152954 0.49632078409194946 1
   vertex 1.1836029291152954 0.49632078409194946 8.1695164539940865e-19
   vertex 1.1889705657958984 0.4973653256893158 5.8501516472321501e-19
  endloop
 endfacet
 facet normal 0.1910166972841105 -0.98158678748171346 0
  outer loop
   vertex 1.1836029291152954 0.49632078409194946 1
   vertex 1.1889705657958984 0.4973653256893158 5.8501516472321501e-19
   vertex 1.1889705657958984 0.4973653256893158 1
  endloop
 endfacet
 facet normal 0.21629020762781814 -0.97632911770791475 0
  outer loop
   vertex 1.1889705657958984 0.4973653256893158 1
   vertex 1.1889705657958984 0.4973653256893158 5.8501516472321501e-19
   vertex 1.1939079761505127 0.49845913052558899 3.4214366654180005e-19
  endloop
 endfacet
 facet normal 0.21629020762781814 -0.97632911770791475 0
  outer loop
   vertex 1.1889705657958984 0.4973653256893158 1
   vertex 1.1939079761505127 0.49845913052558899 3.4214366654180005e-19
   vertex 1.1939079761505127 0.49845913052558899 1
  endloop
 endfacet
 facet normal 0.24520843389823721 -0.96947038322228996 0
  outer loop
   vertex 1.1939079761505127 0.49845913052558899 1
   vertex 1.1939079761505127 0.49845913052558899 3.4214366654180005e-19
   vertex 1.2000000476837158 0.5 5.4385241637571484e-33
  endloop
 endfacet
 facet normal 0.24520843389823721 -0.96947038322228996 0
  outer loop
   vertex 1.1939079761505127 0.49845913052558899 1
   vertex 1.2000000476837158 0.5 5.4385241637571484e-33
   vertex 1.2000000476837158 0.5 1
  endloop
 endfacet
 facet normal 0 0 1
  outer loop
   vertex 1.2000000476837158 0.5 1
   vertex 1.1939079761505127 0.5015408992767334 1
   vertex 1.1939079761505127 0.49845913052558899 1
  endloop
 endfacet
 facet normal 0 0 1
  outer loop
   vertex 1.1939079761505127 0.49845913052558899 1
   vertex 1.1939079761505127 0.5015408992767334 1
   vertex 1.1889705657958984 0.4973653256893158 1
  endloop
 endfacet
 facet normal 0 0 1
  outer loop
   vertex 1.1889705657958984 0.4973653256893158 1
   vertex 1.1939079761505127 0.5015408992767334 1
   vertex 1.1889705657958984 0.50263464450836182 1
  endloop
 endfacet
 facet normal 0 0 1
  outer loop
   vertex 1.1889705657958984 0.4973653256893158 1
   vertex 1.1889705657958984 0.50263464450836182 1
   vertex 1.1836029291152954 0.49632078409194946 1
  endloop
 endfacet
 facet normal 0 0 1
  outer loop
   vertex 1.1836029291152954 0.49632078409194946 1
   vertex 1.1889705657958984 0.50263464450836182 1
   vertex 1.1836029291152954 0.50367921590805054 1
  endloop
 endfacet
 facet normal 0 0 1
  outer loop
   vertex 1.1836029291152954 0.49632078409194946 1
   vertex 1.1836029291152954 0.50367921590805054 1
   vertex 1.1770012378692627 0.49511176347732544 1
  endloop
 endfacet
 facet normal 0 0 1
  outer loop
   vertex 1.1770012378692627 0.49511176347732544 1
   vertex 1.1836029291152954 0.50367921590805054 1
   vertex 1.1770012378692627 0.50488823652267456 1
  endloop
 endfacet
 facet normal 0 0 1
  outer loop
   vertex 1.1770012378692627 0.49511176347732544 1
   vertex 1.1770012378692627 0.50488823652267456 1
   vertex 1.1446559429168701 0.48969417810440063 1
  endloop
 endfacet
 facet normal 0 0 1
  outer loop
   vertex 1.1446559429168701 0.48969417810440063 1
   vertex 1.1770012378692627 0.50488823652267456 1
   vertex 1.1446559429168701 0.51030582189559937 1
  endloop
 endfacet
 facet normal 0 0 1
  outer loop
   vertex 1.1446559429168701 0.48969417810440063 1
   vertex 1.1446559429168701 0.51030582189559937 1
   vertex 1 0.5 1
  endloop
 endfacet
 facet normal 0 0 1
  outer loop
   vertex 1 0.5 1
   vertex 1.1446559429168701 0.51030582189559937 1
   vertex 1.1127582788467407 0.51454156637191772 1
  endloop
 endfacet
 facet normal 0 0 1
  outer loop
   vertex 1 0.5 1
   vertex 1.1127582788467407 0.51454156637191772 1
   vertex 1.0015497207641602 0.50442922115325928 1
  endloop
 endfacet
 facet normal 0 0 1
  outer loop
   vertex 1.0015497207641602 0.50442922115325928 1
   vertex 1.1127582788467407 0.51454156637191772 1
   vertex 1.0039314031600952 0.5070725679397583 1
  endloop
 endfacet
 facet normal 0 0 1
  outer loop
   vertex 1.0039314031600952 0.5070725679397583 1
   vertex 1.1127582788467407 0.51454156637191772 1
   vertex 1.0069969892501831 0.50907033681869507 1
  endloop
 endfacet
 facet normal 0 0 1
  outer loop
   vertex 1.0069969892501831 0.50907033681869507 1
   vertex 1.1127582788467407 0.51454156637191772 1
   vertex 1.0809321403503418 0.51736092567443848 1
  endloop
 endfacet
 facet normal 0 0 1
  outer loop
   vertex 1.0069969892501831 0.50907033681869507 1
   vertex 1.0809321403503418 0.51736092567443848 1
   vertex 1.011050820350647 0.51114290952682495 1
  endloop
 endfacet
 facet normal 0 0 1
  outer loop
   vertex 1.011050820350647 0.51114290952682495 1
   vertex 1.0809321403503418 0.51736092567443848 1
   vertex 1.0186542272567749 0.51369476318359375 1
  endloop
 endfacet
 facet normal 0 0 1
  outer loop
   vertex 1.0186542272567749 0.51369476318359375 1
   vertex 1.0809321403503418 0.51736092567443848 1
   vertex 1.0235295295715332 0.51485508680343628 1
  endloop
 endfacet
 facet normal 0 0 1
  outer loop
   vertex 1.0235295295715332 0.51485508680343628 1
   vertex 1.0809321403503418 0.51736092567443848 1
   vertex 1.0642021894454956 0.51795536279678345 1
  endloop
 endfacet
 facet normal 0 0 1
  outer loop
   vertex 1.0235295295715332 0.51485508680343628 1
   vertex 1.0642021894454956 0.51795536279678345 1
   vertex 1.0575696229934692 0.51800704002380371 1
  endloop
 endfacet
 facet normal -0 0 1
  outer loop
   vertex 1.0575696229934692 0.51800704002380371 1
   vertex 1.0520212650299072 0.51790100336074829 1
   vertex 1.0235295295715332 0.51485508680343628 1
  endloop
 endfacet
 facet normal 0 0 1
  outer loop
   vertex 1.0235295295715332 0.51485508680343628 1
   vertex 1.0520212650299072 0.51790100336074829 1
   vertex 1.0294572114944458 0.51594918966293335 1
  endloop
 endfacet
 facet normal 0 0 1
  outer loop
   vertex 1.1446559429168701 0.48969417810440063 1
   vertex 1 0.5 1
   vertex 1.1127582788467407 0.48545846343040466 1
  endloop
 endfacet
 facet normal 0 0 1
  outer loop
   vertex 1.1127582788467407 0.48545846343040466 1
   vertex 1 0.5 1
   vertex 1.0015497207641602 0.49557080864906311 1
  endloop
 endfacet
 facet normal 0 0 1
  outer loop
   vertex 1.1127582788467407 0.48545846343040466 1
   vertex 1.0015497207641602 0.49557080864906311 1
   vertex 1.0039314031600952 0.49292740225791931 1
  endloop
 endfacet
 facet normal -0 -0 1
  outer loop
   vertex 1.0039314031600952 0.49292740225791931 1
   vertex 1.0069969892501831 0.49092969298362732 1
   vertex 1.1127582788467407 0.48545846343040466 1
  endloop
 endfacet
 facet normal 0 0 1
  outer loop
   vertex 1.1127582788467407 0.48545846343040466 1
   vertex 1.0069969892501831 0.49092969298362732 1
   vertex 1.0809321403503418 0.48263904452323914 1
  endloop
 endfacet
 facet normal 0 0 1
  outer loop
   vertex 1.0809321403503418 0.48263904452323914 1
   vertex 1.0069969892501831 0.49092969298362732 1
   vertex 1.011050820350647 0.48885706067085266 1
  endloop
 endfacet
 facet normal 0 0 1
  outer loop
   vertex 1.0809321403503418 0.48263904452323914 1
   vertex 1.011050820350647 0.48885706067085266 1
   vertex 1.0186542272567749 0.48630520701408386 1
  endloop
 endfacet
 facet normal -0 -0 1
  outer loop
   vertex 1.0186542272567749 0.48630520701408386 1
   vertex 1.0235295295715332 0.48514491319656372 1
   vertex 1.0809321403503418 0.48263904452323914 1
  endloop
 endfacet
 facet normal 0 0 1
  outer loop
   vertex 1.0809321403503418 0.48263904452323914 1
   vertex 1.0235295295715332 0.48514491319656372 1
   vertex 1.0642021894454956 0.48204463720321655 1
  endloop
 endfacet
 facet normal 0 0 1
  outer loop
   vertex 1.0642021894454956 0.48204463720321655 1
   vertex 1.0235295295715332 0.48514491319656372 1
   vertex 1.0575696229934692 0.48199295997619629 1
  endloop
 endfacet
 facet normal 0 0 1
  outer loop
   vertex 1.0575696229934692 0.48199295997619629 1
   vertex 1.0235295295715332 0.48514491319656372 1
   vertex 1.0520212650299072 0.48209896683692932 1
  endloop
 endfacet
 facet normal 0 0 1
  outer loop
   vertex 1.0520212650299072 0.48209896683692932 1
   vertex 1.0235295295715332 0.48514491319656372 1
   vertex 1.0294572114944458 0.48405081033706665 1
  endloop
 endfacet
 facet normal -5.4311721849908303e-22 -2.220436990379279e-16 -1
  outer loop
   vertex 1.2000000476837158 0.5 5.4385241637571484e-33
   vertex 1.1939079761505127 0.49845913052558899 3.4214366654180005e-19
   vertex 1.1939079761505127 0.5015408992767334 -3.4214366654180005e-19
  endloop
 endfacet
 facet normal 2.4833150710937484e-21 -2.220436990379279e-16 -1
  outer loop
   vertex 1.1939079761505127 0.5015408992767334 -3.4214366654180005e-19
   vertex 1.1939079761505127 0.49845913052558899 3.4214366654180005e-19
   vertex 1.1889705657958984 0.50263464450836182 -5.8501516472321501e-19
  endloop
 endfacet
 facet normal 6.7175689478329777e-22 -2.2204584114693161e-16 -1
  outer loop
   vertex 1.1889705657958984 0.50263464450836182 -5.8501516472321501e-19
   vertex 1.1939079761505127 0.49845913052558899 3.4214366654180005e-19
   vertex 1.1889705657958984 0.4973653256893158 5.8501516472321501e-19
  endloop
 endfacet
 facet normal -1.1652066054804357e-21 -2.2204584114693161e-16 -1
  outer loop
   vertex 1.1889705657958984 0.50263464450836182 -5.8501516472321501e-19
   vertex 1.1889705657958984 0.4973653256893158 5.8501516472321501e-19
   vertex 1.1836029291152954 0.50367921590805054 -8.1695164539940865e-19
  endloop
 endfacet
 facet normal -2.2344285127445788e-22 -2.2204504052394064e-16 -1
  outer loop
   vertex 1.1836029291152954 0.50367921590805054 -8.1695164539940865e-19
   vertex 1.1889705657958984 0.4973653256893158 5.8501516472321501e-19
   vertex 1.1836029291152954 0.49632078409194946 8.1695164539940865e-19
  endloop
 endfacet
 facet normal -3.0687786596889202e-22 -2.2204504052394064e-16 -1
  outer loop
   vertex 1.1836029291152954 0.50367921590805054 -8.1695164539940865e-19
   vertex 1.1836029291152954 0.49632078409194946 8.1695164539940865e-19
   vertex 1.1770012378692627 0.50488823652267456 -1.0854066508549582e-18
  endloop
 endfacet
 facet normal 2.3097694251578199e-22 -2.2204462607735815e-16 -1
  outer loop
   vertex 1.1770012378692627 0.50488823652267456 -1.0854066508549582e-18
   vertex 1.1836029291152954 0.49632078409194946 8.1695164539940865e-19
   vertex 1.1770012378692627 0.49511176347732544 1.0854066508549582e-18
  endloop
 endfacet
 facet normal -1.9526253207275417e-23 -2.2204462607735815e-16 -1
  outer loop
   vertex 1.1770012378692627 0.50488823652267456 -1.0854066508549582e-18
   vertex 1.1770012378692627 0.49511176347732544 1.0854066508549582e-18
   vertex 1.1446559429168701 0.51030582189559937 -2.288351737645792e-18
  endloop
 endfacet
 facet normal 9.261652786717779e-24 -2.2204456479331639e-16 -1
  outer loop
   vertex 1.1446559429168701 0.51030582189559937 -2.288351737645792e-18
   vertex 1.1770012378692627 0.49511176347732544 1.0854066508549582e-18
   vertex 1.1446559429168701 0.48969417810440063 2.288351737645792e-18
  endloop
 endfacet
 facet normal 0 -2.2204456479331639e-16 -1
  outer loop
   vertex 1.1446559429168701 0.51030582189559937 -2.288351737645792e-18
   vertex 1.1446559429168701 0.48969417810440063 2.288351737645792e-18
   vertex 1 0.5 0
  endloop
 endfacet
 facet normal -1.5443166555470247e-23 -2.2204478155873716e-16 -1
  outer loop
   vertex 1 0.5 0
   vertex 1.1446559429168701 0.48969417810440063 2.288351737645792e-18
   vertex 1.1127582788467407 0.48545846343040466 3.2288705697793042e-18
  endloop
 endfacet
 facet normal -5.8526819278183898e-23 -2.2204511563887406e-16 -1
  outer loop
   vertex 1 0.5 0
   vertex 1.1127582788467407 0.48545846343040466 3.2288705697793042e-18
   vertex 1.0015497207641602 0.49557080864906311 9.8348021500525531e-19
  endloop
 endfacet
 facet normal 1.4180296545951223e-22 -2.2204291255086429e-16 -1
  outer loop
   vertex 1.0015497207641602 0.49557080864906311 9.8348021500525531e-19
   vertex 1.1127582788467407 0.48545846343040466 3.2288705697793042e-18
   vertex 1.0039314031600952 0.49292740225791931 1.5704302068800201e-18
  endloop
 endfacet
 facet normal -1.6587595551133528e-22 -2.2204739561552145e-16 -1
  outer loop
   vertex 1.0039314031600952 0.49292740225791931 1.5704302068800201e-18
   vertex 1.1127582788467407 0.48545846343040466 3.2288705697793042e-18
   vertex 1.0069969892501831 0.49092969298362732 2.0140158399265084e-18
  endloop
 endfacet
 facet normal 1.0376103658887389e-23 -2.2204398858518381e-16 -1
  outer loop
   vertex 1.0069969892501831 0.49092969298362732 2.0140158399265084e-18
   vertex 1.1127582788467407 0.48545846343040466 3.2288705697793042e-18
   vertex 1.0809321403503418 0.48263904452323914 3.8549052591875058e-18
  endloop
 endfacet
 facet normal 2.8304278402742341e-22 -2.2204155697174496e-16 -1
  outer loop
   vertex 1.0069969892501831 0.49092969298362732 2.0140158399265084e-18
   vertex 1.0809321403503418 0.48263904452323914 3.8549052591875058e-18
   vertex 1.011050820350647 0.48885706067085266 2.4742274930925829e-18
  endloop
 endfacet
 facet normal -5.2576945373885389e-23 -2.2204532884192861e-16 -1
  outer loop
   vertex 1.011050820350647 0.48885706067085266 2.4742274930925829e-18
   vertex 1.0809321403503418 0.48263904452323914 3.8549052591875058e-18
   vertex 1.0186542272567749 0.48630520701408386 3.0408542777023792e-18
  endloop
 endfacet
 facet normal -2.5021202525333684e-22 -2.2204868611274236e-16 -1
  outer loop
   vertex 1.0186542272567749 0.48630520701408386 3.0408542777023792e-18
   vertex 1.0809321403503418 0.48263904452323914 3.8549052591875058e-18
   vertex 1.0235295295715332 0.48514491319656372 3.2984947755281988e-18
  endloop
 endfacet
 facet normal -1.2773241972859614e-22 -2.220458804393249e-16 -1
  outer loop
   vertex 1.0235295295715332 0.48514491319656372 3.2984947755281988e-18
   vertex 1.0809321403503418 0.48263904452323914 3.8549052591875058e-18
   vertex 1.0642021894454956 0.48204463720321655 3.9868930928586109e-18
  endloop
 endfacet
 facet normal 5.0634287095261313e-22 -2.2203756197713392e-16 -1
  outer loop
   vertex 1.0235295295715332 0.48514491319656372 3.2984947755281988e-18
   vertex 1.0642021894454956 0.48204463720321655 3.9868930928586109e-18
   vertex 1.0575696229934692 0.48199295997619629 3.99836402000319e-18
  endloop
 endfacet
 facet normal -2.4386229756929123e-22 -2.2204566395461792e-16 -1
  outer loop
   vertex 1.0575696229934692 0.48199295997619629 3.99836402000319e-18
   vertex 1.0520212650299072 0.48209896683692932 3.9748270092632998e-18
   vertex 1.0235295295715332 0.48514491319656372 3.2984947755281988e-18
  endloop
 endfacet
 facet normal 8.4198236504124584e-22 -2.2203550698032385e-16 -1
  outer loop
   vertex 1.0235295295715332 0.48514491319656372 3.2984947755281988e-18
   vertex 1.0520212650299072 0.48209896683692932 3.9748270092632998e-18
   vertex 1.0294572114944458 0.48405081033706665 3.5414294496288975e-18
  endloop
 endfacet
 facet normal -5.6995876604625727e-23 -2.2204376478024067e-16 -1
  outer loop
   vertex 1.1446559429168701 0.51030582189559937 -2.288351737645792e-18
   vertex 1 0.5 0
   vertex 1.1127582788467407 0.51454156637191772 -3.2288705697793042e-18
  endloop
 endfacet
 facet normal -8.1793173139760891e-23 -2.2204357249693323e-16 -1
  outer loop
   vertex 1.1127582788467407 0.51454156637191772 -3.2288705697793042e-18
   vertex 1 0.5 0
   vertex 1.0015497207641602 0.50442922115325928 -9.8348021500525531e-19
  endloop
 endfacet
 facet normal 3.5410467096181734e-22 -2.2204836619905332e-16 -1
  outer loop
   vertex 1.1127582788467407 0.51454156637191772 -3.2288705697793042e-18
   vertex 1.0015497207641602 0.50442922115325928 -9.8348021500525531e-19
   vertex 1.0039314031600952 0.5070725679397583 -1.5704302068800201e-18
  endloop
 endfacet
 facet normal -2.063954369007454e-22 -2.2204019944468661e-16 -1
  outer loop
   vertex 1.0039314031600952 0.5070725679397583 -1.5704302068800201e-18
   vertex 1.0069969892501831 0.50907033681869507 -2.0140158399265084e-18
   vertex 1.1127582788467407 0.51454156637191772 -3.2288705697793042e-18
  endloop
 endfacet
 facet normal 1.4293708210151932e-22 -2.2204695219694245e-16 -1
  outer loop
   vertex 1.1127582788467407 0.51454156637191772 -3.2288705697793042e-18
   vertex 1.0069969892501831 0.50907033681869507 -2.0140158399265084e-18
   vertex 1.0809321403503418 0.51736092567443848 -3.8549052591875058e-18
  endloop
 endfacet
 facet normal 4.0487384228044168e-22 -2.2204928813884955e-16 -1
  outer loop
   vertex 1.0809321403503418 0.51736092567443848 -3.8549052591875058e-18
   vertex 1.0069969892501831 0.50907033681869507 -2.0140158399265084e-18
   vertex 1.011050820350647 0.51114290952682495 -2.4742274930925829e-18
  endloop
 endfacet
 facet normal 5.2576945373885389e-23 -2.2204532884192861e-16 -1
  outer loop
   vertex 1.0809321403503418 0.51736092567443848 -3.8549052591875058e-18
   vertex 1.011050820350647 0.51114290952682495 -2.4742274930925829e-18
   vertex 1.0186542272567749 0.51369476318359375 -3.0408542777023792e-18
  endloop
 endfacet
 facet normal -1.9585475929717755e-22 -2.2204110867761459e-16 -1
  outer loop
   vertex 1.0186542272567749 0.51369476318359375 -3.0408542777023792e-18
   vertex 1.0235295295715332 0.51485508680343628 -3.2984947755281988e-18
   vertex 1.0809321403503418 0.51736092567443848 -3.8549052591875058e-18
  endloop
 endfacet
 facet normal -1.4205620908110363e-22 -2.2204234107019748e-16 -1
  outer loop
   vertex 1.0809321403503418 0.51736092567443848 -3.8549052591875058e-18
   vertex 1.0235295295715332 0.51485508680343628 -3.2984947755281988e-18
   vertex 1.0642021894454956 0.51795536279678345 -3.9868930928586109e-18
  endloop
 endfacet
 facet normal -5.0634287095261313e-22 -2.2203756197713392e-16 -1
  outer loop
   vertex 1.0642021894454956 0.51795536279678345 -3.9868930928586109e-18
   vertex 1.0235295295715332 0.51485508680343628 -3.2984947755281988e-18
   vertex 1.0575696229934692 0.51800704002380371 -3.99836402000319e-18
  endloop
 endfacet
 facet normal 1.7467426890225009e-21 -2.2206189458538887e-16 -1
  outer loop
   vertex 1.0575696229934692 0.51800704002380371 -3.99836402000319e-18
   vertex 1.0235295295715332 0.51485508680343628 -3.2984947755281988e-18
   vertex 1.0520212650299072 0.51790100336074829 -3.9748270092632998e-18
  endloop
 endfacet
 facet normal -1.3938998661265067e-21 -2.2203251677573228e-16 -1
  outer loop
   vertex 1.0520212650299072 0.51790100336074829 -3.9748270092632998e-18
   vertex 1.0235295295715332 0.51485508680343628 -3.2984947755281988e-18
   vertex 1.0294572114944458 0.51594918966293335 -3.5414294496288975e-18
  endloop
 endfacet
endsolid
